<svg xmlns="http://www.w3.org/2000/svg" width="17" height="16" viewBox="0 0 17 16" fill="none">
  <path d="M5.72858 1.33331V3.33331" stroke="#787486" stroke-width="1.3" stroke-miterlimit="10" stroke-linecap="round" stroke-linejoin="round"/>
  <path d="M11.0619 1.33331V3.33331" stroke="#787486" stroke-width="1.3" stroke-miterlimit="10" stroke-linecap="round" stroke-linejoin="round"/>
  <path d="M11.0619 2.33331C13.2819 2.45331 14.3953 3.29998 14.3953 6.43331V10.5533C14.3953 13.3 13.7286 14.6733 10.3953 14.6733H6.39526C3.06193 14.6733 2.39526 13.3 2.39526 10.5533V6.43331C2.39526 3.29998 3.5086 2.45998 5.7286 2.33331H11.0619Z" stroke="#787486" stroke-width="1.3" stroke-miterlimit="10" stroke-linecap="round" stroke-linejoin="round"/>
  <path d="M14.2286 11.7333H2.56195" stroke="#787486" stroke-width="1.3" stroke-miterlimit="10" stroke-linecap="round" stroke-linejoin="round"/>
  <path d="M8.39524 5.5C7.57524 5.5 6.88191 5.94667 6.88191 6.81333C6.88191 7.22667 7.07524 7.54 7.36858 7.74C6.96191 7.98 6.72858 8.36667 6.72858 8.82C6.72858 9.64667 7.36191 10.16 8.39524 10.16C9.42191 10.16 10.0619 9.64667 10.0619 8.82C10.0619 8.36667 9.82858 7.97333 9.41524 7.74C9.71524 7.53333 9.90191 7.22667 9.90191 6.81333C9.90191 5.94667 9.21524 5.5 8.39524 5.5ZM8.39524 7.39333C8.04858 7.39333 7.79524 7.18667 7.79524 6.86C7.79524 6.52667 8.04858 6.33333 8.39524 6.33333C8.74191 6.33333 8.99524 6.52667 8.99524 6.86C8.99524 7.18667 8.74191 7.39333 8.39524 7.39333ZM8.39524 9.33333C7.95524 9.33333 7.63524 9.11333 7.63524 8.71333C7.63524 8.31333 7.95524 8.1 8.39524 8.1C8.83524 8.1 9.15524 8.32 9.15524 8.71333C9.15524 9.11333 8.83524 9.33333 8.39524 9.33333Z" fill="#787486"/>
</svg>