<svg xmlns="http://www.w3.org/2000/svg" width="21" height="20" viewBox="0 0 21 20" fill="none">
  <path d="M7.30878 1.59766V3.99414" stroke="#787486" stroke-width="1.3" stroke-miterlimit="10" stroke-linecap="round" stroke-linejoin="round"/>
  <path d="M13.6992 1.59766V3.99414" stroke="#787486" stroke-width="1.3" stroke-miterlimit="10" stroke-linecap="round" stroke-linejoin="round"/>
  <path d="M13.6994 2.7959C16.3595 2.93969 17.6935 3.9542 17.6935 7.70869V12.6454C17.6935 15.9366 16.8947 17.5822 12.9006 17.5822H8.10761C4.11346 17.5822 3.31464 15.9366 3.31464 12.6454V7.70869C3.31464 3.9542 4.64868 2.94768 7.30878 2.7959H13.6994Z" stroke="#787486" stroke-width="1.3" stroke-miterlimit="10" stroke-linecap="round" stroke-linejoin="round"/>
  <path d="M17.4937 14.0592H3.51416" stroke="#787486" stroke-width="1.3" stroke-miterlimit="10" stroke-linecap="round" stroke-linejoin="round"/>
  <path d="M10.5039 6.59033C9.52135 6.59033 8.69057 7.12555 8.69057 8.16402C8.69057 8.6593 8.92223 9.03475 9.27371 9.27439C8.78643 9.56197 8.50684 10.0253 8.50684 10.5685C8.50684 11.559 9.26572 12.1741 10.5039 12.1741C11.7341 12.1741 12.501 11.559 12.501 10.5685C12.501 10.0253 12.2214 9.55398 11.7261 9.27439C12.0856 9.02676 12.3093 8.6593 12.3093 8.16402C12.3093 7.12555 11.4865 6.59033 10.5039 6.59033ZM10.5039 8.859C10.0885 8.859 9.78496 8.61137 9.78496 8.21994C9.78496 7.82053 10.0885 7.58887 10.5039 7.58887C10.9193 7.58887 11.2229 7.82053 11.2229 8.21994C11.2229 8.61137 10.9193 8.859 10.5039 8.859ZM10.5039 11.1836C9.97668 11.1836 9.59324 10.92 9.59324 10.4407C9.59324 9.96139 9.97668 9.70576 10.5039 9.70576C11.0311 9.70576 11.4146 9.96938 11.4146 10.4407C11.4146 10.92 11.0311 11.1836 10.5039 11.1836Z" fill="#787486"/>
</svg>