<svg xmlns="http://www.w3.org/2000/svg" width="16" height="16" viewBox="0 0 16 16" fill="none">
  <path d="M3.60006 1.00001H12.4001C13.1334 1.00001 13.7334 1.60001 13.7334 2.33334V3.80001C13.7334 4.33334 13.4001 5.00001 13.0667 5.33334L10.2001 7.86667C9.80006 8.2 9.53339 8.86667 9.53339 9.40001V12.2667C9.53339 12.6667 9.26672 13.2 8.93339 13.4L8.00006 14C7.13339 14.5333 5.93339 13.9333 5.93339 12.8667V9.33334C5.93339 8.86667 5.66672 8.26667 5.40006 7.93334L2.86672 5.26667C2.53339 4.93334 2.26672 4.33334 2.26672 3.93334V2.40001C2.26672 1.60001 2.86672 1.00001 3.60006 1.00001Z" stroke="#787486" stroke-width="1.3" stroke-miterlimit="10" stroke-linecap="round" stroke-linejoin="round"/>
</svg>