<svg xmlns="http://www.w3.org/2000/svg" width="58" height="58" viewBox="0 0 58 58" fill="none">
  <path d="M9.66666 22.5333C9.66666 21.4132 9.66666 20.8532 9.88465 20.4253C10.0764 20.049 10.3824 19.743 10.7587 19.5513C11.1865 19.3333 11.7466 19.3333 12.8667 19.3333H22.6679C23.2188 19.3333 23.4943 19.3333 23.7495 19.402C23.9757 19.4628 24.1894 19.5629 24.381 19.6977C24.5971 19.8499 24.7735 20.0615 25.1262 20.4847L30.2083 26.5833H40.3C41.4201 26.5833 41.9802 26.5833 42.408 26.8013C42.7843 26.993 43.0903 27.299 43.282 27.6753C43.5 28.1032 43.5 28.6632 43.5 29.7833V45.1333C43.5 46.2534 43.5 46.8135 43.282 47.2413C43.0903 47.6176 42.7843 47.9236 42.408 48.1153C41.9802 48.3333 41.4201 48.3333 40.3 48.3333H12.8667C11.7466 48.3333 11.1865 48.3333 10.7587 48.1153C10.3824 47.9236 10.0764 47.6176 9.88465 47.2413C9.66666 46.8135 9.66666 46.2534 9.66666 45.1333V22.5333Z" fill="#55A55E" fill-opacity="0.28"/>
  <path d="M16.9167 15.2833C16.9167 14.1632 16.9167 13.6032 17.1347 13.1753C17.3264 12.799 17.6324 12.493 18.0087 12.3013C18.4365 12.0833 18.9966 12.0833 20.1167 12.0833H29.9179C30.4688 12.0833 30.7443 12.0833 30.9995 12.152C31.2257 12.2128 31.4394 12.3129 31.631 12.4477C31.8471 12.5999 32.0235 12.8115 32.3762 13.2347L37.4583 19.3333H47.55C48.6701 19.3333 49.2302 19.3333 49.658 19.5513C50.0343 19.743 50.3403 20.049 50.532 20.4253C50.75 20.8532 50.75 21.4132 50.75 22.5333V37.8833C50.75 39.0034 50.75 39.5635 50.532 39.9913C50.3403 40.3676 50.0343 40.6736 49.658 40.8653C49.2302 41.0833 48.6701 41.0833 47.55 41.0833H20.1167C18.9966 41.0833 18.4365 41.0833 18.0087 40.8653C17.6324 40.6736 17.3264 40.3676 17.1347 39.9913C16.9167 39.5635 16.9167 39.0034 16.9167 37.8833V15.2833Z" fill="#55A55E"/>
</svg>