<svg width="24" height="24" viewBox="0 0 24 24" fill="none" xmlns="http://www.w3.org/2000/svg">
<path d="M19.21 6.36001C18.17 4.26001 16.16 2.71001 13.83 2.20001C11.39 1.66001 8.89 2.24001 6.98 3.78001C5.06 5.31001 3.97 7.60001 3.97 10.05C3.97 12.64 5.52 15.35 7.86 16.92V17.75C7.85 18.03 7.84 18.46 8.18 18.81C8.53 19.17 9.05 19.21 9.46 19.21H14.59C15.13 19.21 15.54 19.06 15.82 18.78C16.2 18.39 16.19 17.89 16.18 17.62V16.92C19.28 14.83 21.23 10.42 19.21 6.36001Z" fill="#FBCB18"/>
<path d="M15.26 22C15.2 22 15.13 21.99 15.07 21.97C13.06 21.4 10.95 21.4 8.94 21.97C8.57 22.07 8.18 21.86 8.08 21.49C7.97 21.12 8.19 20.73 8.56 20.63C10.82 19.99 13.2 19.99 15.46 20.63C15.83 20.74 16.05 21.12 15.94 21.49C15.84 21.8 15.56 22 15.26 22Z" fill="#FBCB18"/>
</svg>
