<svg xmlns="http://www.w3.org/2000/svg" width="19" height="18" viewBox="0 0 19 18" fill="none">
  <path d="M14.9729 12.75C15.5498 13.092 15.8536 13.48 15.8536 13.875C15.8536 14.27 15.5498 14.658 14.9729 15C14.3959 15.342 13.5661 15.6261 12.5668 15.8236C11.5676 16.021 10.434 16.125 9.28014 16.125C8.12626 16.125 6.99272 16.021 5.99343 15.8236C4.99415 15.6261 4.16433 15.342 3.5874 15C3.01046 14.658 2.70673 14.27 2.70673 13.875C2.70673 13.48 3.01046 13.092 3.5874 12.75" stroke="#787486" stroke-linecap="round"/>
  <path d="M15.0802 7.5C15.0802 11.1794 11.0235 13.6879 9.69544 14.4105C9.43398 14.5528 9.12625 14.5528 8.86479 14.4105C7.53675 13.6879 3.48004 11.1794 3.48004 7.5C3.48004 4.125 6.29037 1.875 9.28011 1.875C12.3735 1.875 15.0802 4.125 15.0802 7.5Z" stroke="#787486"/>
  <path d="M11.8735 7.5C11.8735 8.86638 10.727 10 9.28014 10C7.8333 10 6.68677 8.86638 6.68677 7.5C6.68677 6.13362 7.8333 5 9.28014 5C10.727 5 11.8735 6.13362 11.8735 7.5Z" stroke="#787486"/>
</svg>